<svg xmlns="http://www.w3.org/2000/svg" viewBox="0 0 512 512">
  <defs>
    <linearGradient id="background" x1="70" y1="40" x2="445" y2="475" gradientUnits="userSpaceOnUse">
      <stop stop-color="#253968"/>
      <stop offset="1" stop-color="#08101f"/>
    </linearGradient>
    <linearGradient id="wallet" x1="142" y1="144" x2="376" y2="368" gradientUnits="userSpaceOnUse">
      <stop stop-color="#aeb5ff"/>
      <stop offset="1" stop-color="#7b87ff"/>
    </linearGradient>
  </defs>
  <rect width="512" height="512" rx="112" fill="url(#background)"/>
  <path d="M144 156h205c28 0 51 23 51 51v151c0 28-23 51-51 51H159c-35 0-63-28-63-63V178c0-41 33-75 75-75h171c14 0 25 11 25 25s-11 25-25 25H171c-15 0-27 12-27 27v176c0 3 2 5 5 5s5-2 5-5V207c0-28 23-51 51-51Z" fill="url(#wallet)"/>
  <path d="M316 234h84v98h-84c-27 0-49-22-49-49s22-49 49-49Z" fill="#111d31"/>
  <circle cx="318" cy="283" r="14" fill="#45d49d"/>
</svg>
